<?xml version="1.0" standalone="no"?>
<!DOCTYPE svg PUBLIC "-//W3C//DTD SVG 20010904//EN"
 "http://www.w3.org/TR/2001/REC-SVG-20010904/DTD/svg10.dtd">
<svg version="1.0" xmlns="http://www.w3.org/2000/svg"
 width="1563.000000pt" height="1563.000000pt" viewBox="0 0 1563.000000 1563.000000"
 preserveAspectRatio="xMidYMid meet">

<g transform="translate(0.000000,1563.000000) scale(0.100000,-0.100000)"
fill="#000000" stroke="none">
<path d="M7320 14525 c-195 -16 -339 -32 -457 -51 -307 -47 -306 -47 -448 -79
-426 -98 -616 -155 -1042 -314 -337 -125 -823 -381 -1218 -640 -348 -228 -792
-591 -1025 -838 -36 -37 -101 -107 -145 -153 -80 -84 -232 -264 -314 -370
-152 -198 -229 -303 -315 -435 -54 -82 -106 -161 -116 -175 -52 -77 -236 -400
-315 -555 -84 -162 -194 -409 -262 -585 -35 -92 -132 -375 -148 -435 -8 -27
-29 -106 -48 -175 -40 -141 -63 -234 -76 -300 -5 -25 -18 -92 -29 -150 -89
-451 -122 -804 -122 -1285 0 -266 12 -552 30 -700 18 -157 51 -397 65 -480 34
-204 108 -530 178 -785 94 -341 321 -887 515 -1242 17 -31 36 -65 41 -75 79
-144 290 -479 406 -643 216 -307 553 -696 800 -923 187 -172 205 -188 286
-257 117 -100 117 -101 244 -196 418 -316 884 -590 1330 -783 66 -29 129 -56
140 -61 91 -40 122 -52 210 -85 398 -149 870 -272 1295 -339 349 -55 627 -76
996 -76 563 0 882 36 1519 170 49 11 252 64 320 84 28 8 68 20 90 26 167 48
477 161 655 238 196 85 504 233 616 297 276 158 589 363 778 509 322 250 516
424 785 701 449 463 839 1028 1151 1670 175 358 291 654 389 985 17 58 35 119
41 135 8 27 63 255 89 375 6 25 20 97 31 160 11 63 24 138 30 165 24 125 57
421 70 615 32 515 18 913 -51 1435 -29 220 -50 328 -124 645 -35 150 -119 432
-175 585 -12 33 -33 92 -47 130 -98 268 -307 718 -441 950 -170 295 -429 681
-581 866 -25 30 -62 75 -81 99 -38 48 -79 97 -173 205 -71 82 -390 403 -492
494 -270 243 -803 624 -1130 806 -27 15 -89 49 -136 76 -116 64 -292 152 -403
201 -50 22 -109 48 -131 58 -151 68 -550 205 -785 270 -645 178 -1184 252
-1820 249 -162 -1 -365 -7 -450 -14z m2842 -1842 c93 -72 128 -180 178 -548
18 -136 51 -589 60 -835 11 -291 22 -371 72 -535 22 -71 44 -150 50 -175 5
-25 19 -76 31 -115 17 -58 21 -96 22 -220 0 -131 -3 -157 -22 -206 -53 -137
-114 -239 -142 -239 -11 0 -41 9 -68 21 -26 11 -95 36 -153 54 -406 130 -758
73 -1111 -181 -95 -69 -202 -184 -288 -310 -34 -50 -71 -100 -82 -110 -26 -24
-149 -30 -794 -40 -388 -6 -497 -4 -690 10 -127 10 -246 21 -265 26 -19 5 -80
14 -135 20 -89 10 -184 25 -310 50 -22 4 -86 20 -142 34 -56 14 -109 26 -117
26 -9 0 -35 6 -58 14 -24 7 -63 19 -88 26 -324 93 -700 254 -895 382 -98 65
-203 163 -248 231 -55 85 -71 141 -70 235 2 132 26 254 103 512 40 135 37 98
75 725 39 624 71 895 122 1020 85 207 252 192 518 -44 28 -25 71 -64 96 -86
24 -21 62 -53 84 -70 45 -35 94 -79 288 -260 237 -221 280 -252 365 -261 43
-5 139 9 237 35 67 17 380 69 550 90 119 16 216 21 380 21 363 0 537 -22 1063
-131 117 -24 198 -25 234 -1 57 37 107 79 193 162 94 90 393 364 505 462 111
97 173 143 245 185 62 36 87 44 156 51 9 1 32 -10 51 -25z m1166 -2522 c49
-25 90 -67 109 -111 21 -49 13 -136 -18 -196 -60 -121 -261 -144 -356 -42 -46
49 -64 144 -42 223 13 46 93 131 131 138 61 12 140 6 176 -12z m-1303 -568
c123 -27 255 -99 350 -190 67 -63 183 -202 219 -262 54 -88 86 -199 93 -322 5
-98 4 -107 -13 -116 -11 -6 -81 -7 -174 -2 -85 4 -186 8 -225 10 -42 1 -56 4
-35 6 19 3 37 8 40 11 7 9 40 30 67 41 29 13 39 47 19 67 -9 8 -16 22 -16 30
0 8 -11 32 -25 52 -14 20 -25 42 -25 48 0 7 19 15 43 18 23 4 52 14 65 24 l22
17 -40 42 c-26 26 -43 54 -47 76 -5 30 -1 38 26 58 36 26 38 35 12 42 -24 6
-37 -2 -50 -33 -6 -14 -15 -32 -20 -40 -5 -8 -12 -22 -15 -30 -4 -8 -15 -28
-26 -45 -10 -16 -28 -48 -40 -70 -57 -112 -82 -147 -160 -225 -65 -66 -95 -89
-130 -99 -69 -21 -940 -26 -988 -5 l-35 14 5 108 c8 155 58 285 168 430 112
148 277 267 455 328 123 42 336 50 480 17z m-4642 -225 c76 -38 140 -68 144
-68 3 0 21 -10 40 -21 26 -16 31 -24 21 -30 -7 -5 -182 -9 -389 -9 -483 0
-553 -11 -693 -104 -111 -74 -151 -143 -151 -261 0 -44 3 -107 8 -139 l8 -59
-69 6 c-153 15 -301 98 -353 198 -26 53 -26 161 1 230 39 98 156 200 287 249
153 57 370 77 818 76 l191 -1 137 -67z m5827 -458 c150 -15 264 -83 333 -198
73 -120 69 -64 71 -996 2 -913 4 -875 -53 -855 -65 23 -62 -6 -65 570 l-2 524
-31 95 c-54 171 -157 337 -253 408 -109 80 -160 126 -165 146 -10 44 -11 296
-1 306 12 12 44 12 166 0z m-2668 -33 c14 -21 9 -152 -6 -173 -14 -19 -45 -19
-1828 -21 -1024 -1 -1836 3 -1866 8 -111 18 -132 28 -148 65 -13 31 -13 38 3
64 9 16 35 37 57 47 37 16 95 18 666 23 344 3 1185 4 1869 2 977 -2 1247 -5
1253 -15z m-4565 -425 c26 -15 66 -34 88 -41 22 -7 76 -25 120 -39 l80 -27
3250 -5 3250 -5 69 -27 c164 -64 270 -175 320 -337 19 -62 20 -92 21 -531 0
-256 -3 -475 -7 -487 l-8 -23 -597 0 c-725 0 -802 -6 -974 -81 -216 -92 -415
-305 -498 -531 -46 -124 -54 -178 -54 -343 1 -137 5 -174 26 -256 31 -118 54
-171 123 -276 134 -207 338 -344 585 -394 35 -7 242 -10 594 -10 571 2 765 -4
790 -23 14 -10 17 -67 18 -491 2 -439 0 -486 -16 -545 -56 -197 -197 -345
-385 -404 l-67 -21 -3060 0 c-2884 0 -3065 1 -3154 18 -268 50 -488 242 -570
497 -7 19 -19 80 -27 135 -14 88 -16 358 -17 2176 0 1141 3 2080 7 2087 12 19
42 14 93 -16z m7387 -1863 c126 -18 224 -98 266 -216 25 -67 25 -73 25 -383 0
-272 -3 -323 -18 -370 -37 -117 -109 -194 -227 -242 l-55 -23 -750 -3 c-844
-4 -814 -6 -942 70 -94 56 -147 101 -192 162 -91 123 -121 220 -121 391 0 91
5 134 21 189 22 73 79 180 124 235 42 49 149 129 211 158 117 53 94 52 874 46
399 -2 751 -9 784 -14z m246 -1549 c3 -30 2 -233 -1 -450 -6 -366 -7 -399 -27
-452 -33 -90 -70 -147 -86 -131 -3 4 -6 242 -6 530 l0 523 33 20 c17 11 43 19
57 18 23 -3 25 -8 30 -58z"/>
<path d="M10410 9261 c0 -13 32 -51 42 -51 5 0 8 6 8 13 -1 15 -50 52 -50 38z"/>
<path d="M10428 9158 c-22 -8 -28 -16 -28 -39 0 -22 5 -29 20 -29 11 0 20 -5
20 -11 0 -6 12 4 26 21 26 31 27 32 8 50 -15 14 -25 16 -46 8z"/>
<path d="M9975 6297 c-58 -19 -82 -34 -133 -80 -67 -63 -95 -132 -95 -237 1
-73 5 -94 27 -139 38 -73 98 -136 163 -168 48 -23 67 -26 138 -25 70 0 92 5
148 32 73 34 128 89 161 159 29 64 29 205 -1 271 -29 64 -92 131 -154 165 -44
24 -68 29 -134 32 -47 2 -96 -3 -120 -10z"/>
</g>
</svg>
